# xmcd CD database file
#
# Track frame offsets:
#	150
#	13450
#	30149
#	44584
#	61892
#	84674
#	102213
#	121530
#	140000
#	155283
#	171009
#	186820
#
# Disc length: 2690 seconds
#
# Revision: 0
# Processed by: cddbd v1.5.2PL0 Copyright (c) Steve Scherf et al.
# Submitted via: CDex 1.51
#
DISCID=930a800c
DTITLE=Various Artist - Jazz Loves Disney
DYEAR=2016
DGENRE=Jazz
TTITLE0=Jamie Cullum - Everybody Wants To Be A Cat
TTITLE1=Melody Gardot - He's A Tramp
TTITLE2=Stacey Kent - Bibbidi Bobbidi Boo
TTITLE3=Gregory Porter - When You Wish Upon A Star
TTITLE4=China Moses - Why Don't You Do Right
TTITLE5=Raphael Gualazzi - I Wanna Be Like You
TTITLE6=The Rob Mounsey Orchestra - A Dream Is A Wish Your Heart Makes
TTITLE7=Hugh Coltman - You've Got A Friend In Me
TTITLE8=Anne Sila - Let It Go
TTITLE9=Melody Gardot and Raphael Gualazzi - The Bare Necessities
TTITLE10=Laika - Once Upon A Dream
TTITLE11=Nikki Yanofsky - Un Jour Mon Prince Viendra 
EXTD=YEAR: 2016
EXTT0=
EXTT1=
EXTT2=
EXTT3=
EXTT4=
EXTT5=
EXTT6=
EXTT7=
EXTT8=
EXTT9=
EXTT10=
EXTT11=
PLAYORDER=
